<?xml version="1.0" encoding="UTF-8" standalone="no"?>
<!-- Created with Inkscape (http://www.inkscape.org/) -->

<svg
   xmlns:dc="http://purl.org/dc/elements/1.1/"
   xmlns:cc="http://creativecommons.org/ns#"
   xmlns:rdf="http://www.w3.org/1999/02/22-rdf-syntax-ns#"
   xmlns:svg="http://www.w3.org/2000/svg"
   xmlns="http://www.w3.org/2000/svg"
   xmlns:sodipodi="http://sodipodi.sourceforge.net/DTD/sodipodi-0.dtd"
   xmlns:inkscape="http://www.inkscape.org/namespaces/inkscape"
   width="187.87932"
   height="234.75897"
   id="svg5679"
   version="1.1"
   inkscape:version="0.48+devel r13026"
   viewBox="0 0 187.87932 234.75898"
   sodipodi:docname="logberry.svg">
  <defs
     id="defs5681" />
  <sodipodi:namedview
     id="base"
     pagecolor="#ffffff"
     bordercolor="#666666"
     borderopacity="1.0"
     inkscape:pageopacity="0.0"
     inkscape:pageshadow="2"
     inkscape:zoom="0.85391741"
     inkscape:cx="93.939659"
     inkscape:cy="117.37949"
     inkscape:document-units="px"
     inkscape:current-layer="layer1"
     showgrid="false"
     fit-margin-top="0"
     fit-margin-left="0"
     fit-margin-right="0"
     fit-margin-bottom="0"
     inkscape:window-width="1345"
     inkscape:window-height="746"
     inkscape:window-x="21"
     inkscape:window-y="0"
     inkscape:window-maximized="1" />
  <metadata
     id="metadata5684">
    <rdf:RDF>
      <cc:Work
         rdf:about="">
        <dc:format>image/svg+xml</dc:format>
        <dc:type
           rdf:resource="http://purl.org/dc/dcmitype/StillImage" />
        <dc:title></dc:title>
      </cc:Work>
    </rdf:RDF>
  </metadata>
  <g
     inkscape:label="Layer 1"
     inkscape:groupmode="layer"
     id="layer1"
     transform="translate(-308.81621,-357.76262)">
    <path
       inkscape:connector-curvature="0"
       id="path792"
       style="fill:#00a650;fill-opacity:1;fill-rule:nonzero;stroke:none"
       d="m 418.97944,417.1276 c -2.94125,-12.25375 -9.8025,-50.48375 -28.42763,-56.365 0,0 -10.2925,3.92125 -10.2925,13.23375 0,0 30.87763,31.85875 19.60513,47.05125 l 19.115,-3.92" />
    <path
       inkscape:connector-curvature="0"
       id="path794"
       style="fill:none;stroke:#231f20;stroke-width:6;stroke-linecap:round;stroke-linejoin:round;stroke-miterlimit:17.33333397;stroke-opacity:1;stroke-dasharray:none"
       d="m 418.97944,417.1276 c -2.94125,-12.25375 -9.8025,-50.48375 -28.42763,-56.365 0,0 -10.2925,3.92125 -10.2925,13.23375 0,0 30.87763,31.85875 19.60513,47.05125 l 19.115,-3.92 z" />
    <path
       inkscape:connector-curvature="0"
       id="path796"
       style="fill:#00a650;fill-opacity:1;fill-rule:nonzero;stroke:none"
       d="m 365.72619,404.16885 c 0,0 -19.72763,-9.885 -53.91025,24.84875 0,0 69.55175,21.64125 53.91025,-24.84875" />
    <path
       inkscape:connector-curvature="0"
       id="path798"
       style="fill:none;stroke:#231f20;stroke-width:6;stroke-linecap:round;stroke-linejoin:round;stroke-miterlimit:17.33333397;stroke-opacity:1;stroke-dasharray:none"
       d="m 365.72619,404.16885 c 0,0 -19.72763,-9.885 -53.91025,24.84875 0,0 69.55175,21.64125 53.91025,-24.84875 z" />
    <path
       inkscape:connector-curvature="0"
       id="path800"
       style="fill:#00a650;fill-opacity:1;fill-rule:nonzero;stroke:none"
       d="m 431.17819,426.71885 c 0,0 6.29,24.7225 62.5175,28.30875 0,0 -33.72625,-77.165 -62.5175,-28.30875" />
    <path
       inkscape:connector-curvature="0"
       id="path802"
       style="fill:none;stroke:#231f20;stroke-width:6;stroke-linecap:round;stroke-linejoin:round;stroke-miterlimit:17.33333397;stroke-opacity:1;stroke-dasharray:none"
       d="m 431.17819,426.71885 c 0,0 6.29,24.7225 62.5175,28.30875 0,0 -33.72625,-77.165 -62.5175,-28.30875 z" />
    <path
       inkscape:connector-curvature="0"
       id="path804"
       style="fill:#ed1c24;fill-opacity:1;fill-rule:nonzero;stroke:none"
       d="m 347.09481,422.99135 c -21.70262,18.88625 -31.92875,61.755 -9.06012,98.975 26.88137,43.7525 39.67675,69.09125 57.691,67.48625 18.0125,-1.605 39.59375,-25.87375 70.91625,-74.0575 31.32125,-48.1825 -9.2875,-88.56 -27.53375,-97.40875 -18.2475,-8.85 -70.30975,-13.88375 -92.01338,5.005" />
    <path
       inkscape:connector-curvature="0"
       id="path806"
       style="fill:none;stroke:#231f20;stroke-width:4.59087515;stroke-linecap:butt;stroke-linejoin:round;stroke-miterlimit:4;stroke-opacity:1;stroke-dasharray:none"
       d="m 347.09481,422.99135 c -21.70262,18.88625 -31.92875,61.755 -9.06012,98.975 26.88137,43.7525 39.67675,69.09125 57.691,67.48625 18.0125,-1.605 39.59375,-25.87375 70.91625,-74.0575 31.32125,-48.1825 -9.2875,-88.56 -27.53375,-97.40875 -18.2475,-8.85 -70.30975,-13.88375 -92.01338,5.005 z" />
    <path
       inkscape:connector-curvature="0"
       id="path808"
       style="fill:#bc151b;fill-opacity:1;fill-rule:nonzero;stroke:none"
       d="m 377.00694,580.1101 c 6.13625,6.63375 11.96287,9.94375 18.71875,9.3425 18.0125,-1.605 39.59375,-25.87375 70.91625,-74.0575 31.32125,-48.1825 -9.2875,-88.56 -27.53375,-97.40875 36.48625,74.9125 -42.21375,157.5475 -62.10125,162.12375" />
    <path
       inkscape:connector-curvature="0"
       id="path810"
       style="fill:none;stroke:#231f20;stroke-width:6;stroke-linecap:butt;stroke-linejoin:round;stroke-miterlimit:17.33333397;stroke-opacity:1;stroke-dasharray:none"
       d="m 347.09481,422.99135 c -21.70262,18.88625 -31.92875,61.755 -9.06012,98.975 26.88137,43.7525 39.67675,69.09125 57.691,67.48625 18.0125,-1.605 39.59375,-25.87375 70.91625,-74.0575 31.32125,-48.1825 -9.2875,-88.56 -27.53375,-97.40875 -18.2475,-8.85 -70.30975,-13.88375 -92.01338,5.005 z" />
    <path
       inkscape:connector-curvature="0"
       id="path812"
       style="fill:#f6836c;fill-opacity:1;fill-rule:nonzero;stroke:none"
       d="m 400.66569,422.48385 c 0,1.30875 -1.06125,7.2825 -2.37,7.2825 -1.3075,0 -2.36875,-5.97375 -2.36875,-7.2825 0,-1.3075 1.06125,-2.36875 2.36875,-2.36875 1.30875,0 2.37,1.06125 2.37,2.36875" />
    <path
       inkscape:connector-curvature="0"
       id="path814"
       style="fill:#f6836c;fill-opacity:1;fill-rule:nonzero;stroke:none"
       d="m 402.85194,450.0301 c 0,1.3075 -1.06125,7.28125 -2.37,7.28125 -1.3075,0 -2.36875,-5.97375 -2.36875,-7.28125 0,-1.30875 1.06125,-2.37 2.36875,-2.37 1.30875,0 2.37,1.06125 2.37,2.37" />
    <path
       inkscape:connector-curvature="0"
       id="path816"
       style="fill:#f6836c;fill-opacity:1;fill-rule:nonzero;stroke:none"
       d="m 401.97694,480.63385 c 0,1.31 -1.06,7.2825 -2.36875,7.2825 -1.30875,0 -2.36875,-5.9725 -2.36875,-7.2825 0,-1.3075 1.06,-2.3675 2.36875,-2.3675 1.30875,0 2.36875,1.06 2.36875,2.3675" />
    <path
       inkscape:connector-curvature="0"
       id="path818"
       style="fill:#f6836c;fill-opacity:1;fill-rule:nonzero;stroke:none"
       d="m 401.97694,513.42635 c 0,1.30875 -1.06,7.2825 -2.36875,7.2825 -1.30875,0 -2.36875,-5.97375 -2.36875,-7.2825 0,-1.30875 1.06,-2.36875 2.36875,-2.36875 1.30875,0 2.36875,1.06 2.36875,2.36875" />
    <path
       inkscape:connector-curvature="0"
       id="path820"
       style="fill:#f6836c;fill-opacity:1;fill-rule:nonzero;stroke:none"
       d="m 401.10319,545.3426 c 0,1.31 -1.06125,7.2825 -2.37,7.2825 -1.3075,0 -2.36875,-5.9725 -2.36875,-7.2825 0,-1.30625 1.06125,-2.3675 2.36875,-2.3675 1.30875,0 2.37,1.06125 2.37,2.3675" />
    <path
       inkscape:connector-curvature="0"
       id="path822"
       style="fill:#f6836c;fill-opacity:1;fill-rule:nonzero;stroke:none"
       d="m 387.11144,434.72635 c 0,1.30875 -1.06113,7.2825 -2.36913,7.2825 -1.30812,0 -2.36925,-5.97375 -2.36925,-7.2825 0,-1.30875 1.06113,-2.36875 2.36925,-2.36875 1.308,0 2.36913,1.06 2.36913,2.36875" />
    <path
       inkscape:connector-curvature="0"
       id="path824"
       style="fill:#f6836c;fill-opacity:1;fill-rule:nonzero;stroke:none"
       d="m 377.49231,420.2976 c 0,1.30875 -1.06112,7.28375 -2.36975,7.28375 -1.3075,0 -2.36862,-5.975 -2.36862,-7.28375 0,-1.30875 1.06112,-2.36875 2.36862,-2.36875 1.30863,0 2.36975,1.06 2.36975,2.36875" />
    <path
       inkscape:connector-curvature="0"
       id="path826"
       style="fill:#f6836c;fill-opacity:1;fill-rule:nonzero;stroke:none"
       d="m 376.18069,448.7176 c 0,1.30875 -1.061,7.28375 -2.36963,7.28375 -1.30812,0 -2.36862,-5.975 -2.36862,-7.28375 0,-1.3075 1.0605,-2.36875 2.36862,-2.36875 1.30863,0 2.36963,1.06125 2.36963,2.36875" />
    <path
       inkscape:connector-curvature="0"
       id="path828"
       style="fill:#f6836c;fill-opacity:1;fill-rule:nonzero;stroke:none"
       d="m 373.99419,478.8851 c 0,1.31 -1.0605,7.28375 -2.36913,7.28375 -1.30812,0 -2.36862,-5.97375 -2.36862,-7.28375 0,-1.30625 1.0605,-2.3675 2.36862,-2.3675 1.30863,0 2.36913,1.06125 2.36913,2.3675" />
    <path
       inkscape:connector-curvature="0"
       id="path830"
       style="fill:#f6836c;fill-opacity:1;fill-rule:nonzero;stroke:none"
       d="m 373.11969,507.7426 c 0,1.30875 -1.0605,7.2825 -2.36913,7.2825 -1.30812,0 -2.36912,-5.97375 -2.36912,-7.2825 0,-1.30875 1.061,-2.36875 2.36912,-2.36875 1.30863,0 2.36913,1.06 2.36913,2.36875" />
    <path
       inkscape:connector-curvature="0"
       id="path832"
       style="fill:#f6836c;fill-opacity:1;fill-rule:nonzero;stroke:none"
       d="m 376.17781,540.9826 c 0,1.31 -1.061,7.28375 -2.36962,7.28375 -1.30813,0 -2.36863,-5.97375 -2.36863,-7.28375 0,-1.3075 1.0605,-2.36875 2.36863,-2.36875 1.30862,0 2.36962,1.06125 2.36962,2.36875" />
    <path
       inkscape:connector-curvature="0"
       id="path834"
       style="fill:#f6836c;fill-opacity:1;fill-rule:nonzero;stroke:none"
       d="m 360.00294,432.5401 c 0,1.30875 -1.0605,7.28375 -2.36913,7.28375 -1.30812,0 -2.36862,-5.975 -2.36862,-7.28375 0,-1.3075 1.0605,-2.3675 2.36862,-2.3675 1.30863,0 2.36913,1.06 2.36913,2.3675" />
    <path
       inkscape:connector-curvature="0"
       id="path836"
       style="fill:#f6836c;fill-opacity:1;fill-rule:nonzero;stroke:none"
       d="m 359.12844,461.3976 c 0,1.30875 -1.0605,7.2825 -2.36913,7.2825 -1.30812,0 -2.36912,-5.97375 -2.36912,-7.2825 0,-1.3075 1.061,-2.36875 2.36912,-2.36875 1.30863,0 2.36913,1.06125 2.36913,2.36875" />
    <path
       inkscape:connector-curvature="0"
       id="path838"
       style="fill:#f6836c;fill-opacity:1;fill-rule:nonzero;stroke:none"
       d="m 359.12844,492.8776 c 0,1.30875 -1.0605,7.2825 -2.36913,7.2825 -1.30812,0 -2.36912,-5.97375 -2.36912,-7.2825 0,-1.3075 1.061,-2.36875 2.36912,-2.36875 1.30863,0 2.36913,1.06125 2.36913,2.36875" />
    <path
       inkscape:connector-curvature="0"
       id="path840"
       style="fill:#f6836c;fill-opacity:1;fill-rule:nonzero;stroke:none"
       d="m 360.00256,521.73385 c 0,1.30875 -1.06062,7.28375 -2.36875,7.28375 -1.3085,0 -2.36862,-5.975 -2.36862,-7.28375 0,-1.3075 1.06012,-2.36875 2.36862,-2.36875 1.30813,0 2.36875,1.06125 2.36875,2.36875" />
    <path
       inkscape:connector-curvature="0"
       id="path842"
       style="fill:#f6836c;fill-opacity:1;fill-rule:nonzero;stroke:none"
       d="m 342.95119,472.3276 c 0,1.30875 -1.061,7.2825 -2.36963,7.2825 -1.30762,0 -2.36862,-5.97375 -2.36862,-7.2825 0,-1.30875 1.061,-2.36875 2.36862,-2.36875 1.30863,0 2.36963,1.06 2.36963,2.36875" />
    <path
       inkscape:connector-curvature="0"
       id="path844"
       style="fill:#f6836c;fill-opacity:1;fill-rule:nonzero;stroke:none"
       d="m 345.57481,446.96885 c 0,1.30875 -1.06112,7.2825 -2.36962,7.2825 -1.30813,0 -2.36875,-5.97375 -2.36875,-7.2825 0,-1.30875 1.06062,-2.36875 2.36875,-2.36875 1.3085,0 2.36962,1.06 2.36962,2.36875" />
    <path
       inkscape:connector-curvature="0"
       id="path846"
       style="fill:#f6836c;fill-opacity:1;fill-rule:nonzero;stroke:none"
       d="m 343.82531,501.18385 c 0,1.31 -1.06112,7.28375 -2.36962,7.28375 -1.30763,0 -2.36875,-5.97375 -2.36875,-7.28375 0,-1.3075 1.06112,-2.36875 2.36875,-2.36875 1.3085,0 2.36962,1.06125 2.36962,2.36875" />
    <path
       inkscape:connector-curvature="0"
       id="path848"
       style="fill:#f6836c;fill-opacity:1;fill-rule:nonzero;stroke:none"
       d="m 382.74131,567.58135 c 0,1.30875 -1.06112,7.2825 -2.36875,7.2825 -1.3085,0 -2.36912,-5.97375 -2.36912,-7.2825 0,-1.30875 1.06062,-2.36875 2.36912,-2.36875 1.30763,0 2.36875,1.06 2.36875,2.36875" />
    <path
       inkscape:connector-curvature="0"
       id="path850"
       style="fill:#f6836c;fill-opacity:1;fill-rule:nonzero;stroke:none"
       d="m 389.29794,462.27135 c 0,1.30875 -1.061,7.2825 -2.36963,7.2825 -1.30812,0 -2.36862,-5.97375 -2.36862,-7.2825 0,-1.30875 1.0605,-2.36875 2.36862,-2.36875 1.30863,0 2.36963,1.06 2.36963,2.36875" />
    <path
       inkscape:connector-curvature="0"
       id="path852"
       style="fill:#f6836c;fill-opacity:1;fill-rule:nonzero;stroke:none"
       d="m 388.42294,492.87635 c 0,1.30875 -1.06063,7.2825 -2.36863,7.2825 -1.30862,0 -2.36875,-5.97375 -2.36875,-7.2825 0,-1.30875 1.06013,-2.36875 2.36875,-2.36875 1.308,0 2.36863,1.06 2.36863,2.36875" />
    <path
       inkscape:connector-curvature="0"
       id="path854"
       style="fill:#f6836c;fill-opacity:1;fill-rule:nonzero;stroke:none"
       d="m 388.42294,525.6676 c 0,1.30875 -1.06063,7.28375 -2.36863,7.28375 -1.30862,0 -2.36875,-5.975 -2.36875,-7.28375 0,-1.3075 1.06013,-2.36875 2.36875,-2.36875 1.308,0 2.36863,1.06125 2.36863,2.36875" />
    <path
       inkscape:connector-curvature="0"
       id="path856"
       style="fill:#f6836c;fill-opacity:1;fill-rule:nonzero;stroke:none"
       d="m 439.57819,468.8301 c 0,1.30875 -1.06125,7.28375 -2.37,7.28375 -1.3075,0 -2.36875,-5.975 -2.36875,-7.28375 0,-1.3075 1.06125,-2.36875 2.36875,-2.36875 1.30875,0 2.37,1.06125 2.37,2.36875" />
    <path
       inkscape:connector-curvature="0"
       id="path858"
       style="fill:#f6836c;fill-opacity:1;fill-rule:nonzero;stroke:none"
       d="m 438.70319,497.68635 c 0,1.30875 -1.06,7.28375 -2.36875,7.28375 -1.30875,0 -2.37,-5.975 -2.37,-7.28375 0,-1.3075 1.06125,-2.36875 2.37,-2.36875 1.30875,0 2.36875,1.06125 2.36875,2.36875" />
    <path
       inkscape:connector-curvature="0"
       id="path860"
       style="fill:#870e12;fill-opacity:1;fill-rule:nonzero;stroke:none"
       d="m 454.88194,452.2151 c 0,1.30875 -1.06125,7.28375 -2.37125,7.28375 -1.3075,0 -2.3675,-5.975 -2.3675,-7.28375 0,-1.30875 1.06,-2.36875 2.3675,-2.36875 1.31,0 2.37125,1.06 2.37125,2.36875" />
    <path
       inkscape:connector-curvature="0"
       id="path862"
       style="fill:#870e12;fill-opacity:1;fill-rule:nonzero;stroke:none"
       d="m 455.53694,484.67885 c 0,1.30875 -1.06,7.28375 -2.37,7.28375 -1.3075,0 -2.36875,-5.975 -2.36875,-7.28375 0,-1.3075 1.06125,-2.36875 2.36875,-2.36875 1.31,0 2.37,1.06125 2.37,2.36875" />
    <path
       inkscape:connector-curvature="0"
       id="path864"
       style="fill:#870e12;fill-opacity:1;fill-rule:nonzero;stroke:none"
       d="m 469.63694,467.6276 c 0,1.30875 -1.06,7.2825 -2.36875,7.2825 -1.30875,0 -2.36875,-5.97375 -2.36875,-7.2825 0,-1.30875 1.06,-2.36875 2.36875,-2.36875 1.30875,0 2.36875,1.06 2.36875,2.36875" />
    <path
       inkscape:connector-curvature="0"
       id="path866"
       style="fill:#870e12;fill-opacity:1;fill-rule:nonzero;stroke:none"
       d="m 450.29069,514.84635 c 0,1.31 -1.06125,7.28375 -2.37,7.28375 -1.3075,0 -2.36875,-5.97375 -2.36875,-7.28375 0,-1.3075 1.06125,-2.3675 2.36875,-2.3675 1.30875,0 2.37,1.06 2.37,2.3675" />
    <path
       inkscape:connector-curvature="0"
       id="path868"
       style="fill:#870e12;fill-opacity:1;fill-rule:nonzero;stroke:none"
       d="m 464.71944,500.09135 c 0,1.30875 -1.06125,7.2825 -2.37125,7.2825 -1.3075,0 -2.3675,-5.97375 -2.3675,-7.2825 0,-1.30875 1.06,-2.36875 2.3675,-2.36875 1.31,0 2.37125,1.06 2.37125,2.36875" />
    <path
       inkscape:connector-curvature="0"
       id="path870"
       style="fill:#870e12;fill-opacity:1;fill-rule:nonzero;stroke:none"
       d="m 440.12444,532.55385 c 0,1.31 -1.06,7.28375 -2.36875,7.28375 -1.30875,0 -2.36875,-5.97375 -2.36875,-7.28375 0,-1.3075 1.06,-2.3675 2.36875,-2.3675 1.30875,0 2.36875,1.06 2.36875,2.3675" />
    <path
       inkscape:connector-curvature="0"
       id="path872"
       style="fill:#870e12;fill-opacity:1;fill-rule:nonzero;stroke:none"
       d="m 425.69694,549.93385 c 0,1.31 -1.06125,7.28375 -2.37,7.28375 -1.30875,0 -2.36875,-5.97375 -2.36875,-7.28375 0,-1.3075 1.06,-2.3675 2.36875,-2.3675 1.30875,0 2.37,1.06 2.37,2.3675" />
    <path
       inkscape:connector-curvature="0"
       id="path874"
       style="fill:#870e12;fill-opacity:1;fill-rule:nonzero;stroke:none"
       d="m 412.90819,563.37885 c 0,1.30875 -1.06125,7.28375 -2.37,7.28375 -1.30875,0 -2.36875,-5.975 -2.36875,-7.28375 0,-1.3075 1.06,-2.36875 2.36875,-2.36875 1.30875,0 2.37,1.06125 2.37,2.36875" />
    <path
       inkscape:connector-curvature="0"
       id="path876"
       style="fill:#870e12;fill-opacity:1;fill-rule:nonzero;stroke:none"
       d="m 398.47944,576.1676 c 0,1.30875 -1.06,7.2825 -2.37,7.2825 -1.3075,0 -2.36875,-5.97375 -2.36875,-7.2825 0,-1.30875 1.06125,-2.3675 2.36875,-2.3675 1.31,0 2.37,1.05875 2.37,2.3675" />
    <path
       inkscape:connector-curvature="0"
       id="path878"
       style="fill:#f6836c;fill-opacity:1;fill-rule:nonzero;stroke:none"
       d="m 438.70444,433.85135 c 0,1.30875 -1.06125,7.2825 -2.37,7.2825 -1.3075,0 -2.3675,-5.97375 -2.3675,-7.2825 0,-1.3075 1.06,-2.36875 2.3675,-2.36875 1.30875,0 2.37,1.06125 2.37,2.36875" />
    <path
       inkscape:connector-curvature="0"
       id="path880"
       style="fill:#f6836c;fill-opacity:1;fill-rule:nonzero;stroke:none"
       d="m 387.11144,553.6501 c 0,1.31 -1.06113,7.2825 -2.36875,7.2825 -1.3085,0 -2.36913,-5.9725 -2.36913,-7.2825 0,-1.3075 1.06063,-2.3675 2.36913,-2.3675 1.30762,0 2.36875,1.06 2.36875,2.3675" />
    <path
       inkscape:connector-curvature="0"
       id="path882"
       style="fill:#f6836c;fill-opacity:1;fill-rule:nonzero;stroke:none"
       d="m 425.58694,422.04635 c 0,1.30875 -1.06,7.2825 -2.36875,7.2825 -1.30875,0 -2.36875,-5.97375 -2.36875,-7.2825 0,-1.30875 1.06,-2.36875 2.36875,-2.36875 1.30875,0 2.36875,1.06 2.36875,2.36875" />
    <path
       inkscape:connector-curvature="0"
       id="path884"
       style="fill:#f6836c;fill-opacity:1;fill-rule:nonzero;stroke:none"
       d="m 414.65569,436.0376 c 0,1.30875 -1.06,7.28375 -2.36875,7.28375 -1.3075,0 -2.36875,-5.975 -2.36875,-7.28375 0,-1.3075 1.06125,-2.36875 2.36875,-2.36875 1.30875,0 2.36875,1.06125 2.36875,2.36875" />
    <path
       inkscape:connector-curvature="0"
       id="path886"
       style="fill:#f6836c;fill-opacity:1;fill-rule:nonzero;stroke:none"
       d="m 412.46944,466.20635 c 0,1.30875 -1.06,7.2825 -2.36875,7.2825 -1.3075,0 -2.36875,-5.97375 -2.36875,-7.2825 0,-1.30875 1.06125,-2.36875 2.36875,-2.36875 1.30875,0 2.36875,1.06 2.36875,2.36875" />
    <path
       inkscape:connector-curvature="0"
       id="path888"
       style="fill:#f6836c;fill-opacity:1;fill-rule:nonzero;stroke:none"
       d="m 411.59569,495.0626 c 0,1.30875 -1.06125,7.2825 -2.37,7.2825 -1.3075,0 -2.36875,-5.97375 -2.36875,-7.2825 0,-1.3075 1.06125,-2.36875 2.36875,-2.36875 1.30875,0 2.37,1.06125 2.37,2.36875" />
    <path
       inkscape:connector-curvature="0"
       id="path890"
       style="fill:#f6836c;fill-opacity:1;fill-rule:nonzero;stroke:none"
       d="m 411.59569,526.5426 c 0,1.30875 -1.06125,7.28375 -2.37,7.28375 -1.3075,0 -2.36875,-5.975 -2.36875,-7.28375 0,-1.3075 1.06125,-2.36875 2.36875,-2.36875 1.30875,0 2.37,1.06125 2.37,2.36875" />
    <path
       inkscape:connector-curvature="0"
       id="path892"
       style="fill:#f6836c;fill-opacity:1;fill-rule:nonzero;stroke:none"
       d="m 427.77319,449.59135 c 0,1.30875 -1.06125,7.2825 -2.36875,7.2825 -1.30875,0 -2.36875,-5.97375 -2.36875,-7.2825 0,-1.30875 1.06,-2.36875 2.36875,-2.36875 1.3075,0 2.36875,1.06 2.36875,2.36875" />
    <path
       inkscape:connector-curvature="0"
       id="path894"
       style="fill:#f6836c;fill-opacity:1;fill-rule:nonzero;stroke:none"
       d="m 426.89944,480.19635 c 0,1.30875 -1.06125,7.2825 -2.37,7.2825 -1.3075,0 -2.36875,-5.97375 -2.36875,-7.2825 0,-1.3075 1.06125,-2.36875 2.36875,-2.36875 1.30875,0 2.37,1.06125 2.37,2.36875" />
    <path
       inkscape:connector-curvature="0"
       id="path896"
       style="fill:#f6836c;fill-opacity:1;fill-rule:nonzero;stroke:none"
       d="m 426.89944,512.9876 c 0,1.31 -1.06125,7.28375 -2.37,7.28375 -1.3075,0 -2.36875,-5.97375 -2.36875,-7.28375 0,-1.3075 1.06125,-2.36875 2.36875,-2.36875 1.30875,0 2.37,1.06125 2.37,2.36875" />
    <path
       inkscape:connector-curvature="0"
       id="path898"
       style="fill:#80d190;fill-opacity:1;fill-rule:nonzero;stroke:none"
       d="m 381.13331,399.7151 c -26.77387,-5.80625 -41.14062,15.9475 -18.85587,56.5425 0,0 85.7095,-42.045 18.85587,-56.5425" />
    <path
       inkscape:connector-curvature="0"
       id="path900"
       style="fill:none;stroke:#231f20;stroke-width:6;stroke-linecap:round;stroke-linejoin:round;stroke-miterlimit:17.33333397;stroke-opacity:1;stroke-dasharray:none"
       d="m 381.13331,399.7151 c -26.77387,-5.80625 -41.14062,15.9475 -18.85587,56.5425 0,0 85.7095,-42.045 18.85587,-56.5425 z" />
    <path
       inkscape:connector-curvature="0"
       id="path902"
       style="fill:#80d190;fill-opacity:1;fill-rule:nonzero;stroke:none"
       d="m 423.25569,404.7576 c -22.28,3.5375 -31.78125,27.685 12.19625,63.91 0,0 53.7175,-74.375 -12.19625,-63.91" />
    <path
       inkscape:connector-curvature="0"
       id="path904"
       style="fill:none;stroke:#231f20;stroke-width:6;stroke-linecap:round;stroke-linejoin:round;stroke-miterlimit:17.33333397;stroke-opacity:1;stroke-dasharray:none"
       d="m 423.25569,404.7576 c -22.28,3.5375 -31.78125,27.685 12.19625,63.91 0,0 53.7175,-74.375 -12.19625,-63.91 z" />
  </g>
</svg>
